<?xml version='1.0' encoding='utf-8'?>
<svg xmlns="http://www.w3.org/2000/svg" xmlns:xlink="http://www.w3.org/1999/xlink" xmlns="http://www.w3.org/2000/svg" viewBox="158.04 -95.51 1451.62 1451.62"><defs>
    <style>
      .cls-1 {
        fill: url(#Nieuwe_verloopstaal_1-7);
      }

      .cls-2 {
        fill: url(#Nieuwe_verloopstaal_1-5);
      }

      .cls-3 {
        fill: url(#Nieuwe_verloopstaal_1-2);
      }

      .cls-4 {
        fill: #1d1d1b;
      }

      .cls-5 {
        fill: url(#Nieuwe_verloopstaal_1-9);
      }

      .cls-6 {
        fill: url(#Nieuwe_verloopstaal_1-8);
      }

      .cls-7 {
        fill: url(#Nieuwe_verloopstaal_1-6);
      }

      .cls-8 {
        fill: url(#Nieuwe_verloopstaal_1-4);
      }

      .cls-9 {
        fill: url(#Nieuwe_verloopstaal_1);
      }

      .cls-10 {
        fill: url(#Nieuwe_verloopstaal_1-3);
      }

      .cls-11 {
        fill: #304157;
      }
    </style>
    <linearGradient id="Nieuwe_verloopstaal_1" data-name="Nieuwe verloopstaal 1" x1="192.64" y1="1073.47" x2="1575.11" y2="1073.47" gradientUnits="userSpaceOnUse">
      <stop offset="0" stop-color="#597d8e" />
      <stop offset=".47" stop-color="#c8dae6" />
      <stop offset=".99" stop-color="#f4efeb" />
    </linearGradient>
    <linearGradient id="Nieuwe_verloopstaal_1-2" data-name="Nieuwe verloopstaal 1" y1="1084.23" y2="1084.23" xlink:href="#Nieuwe_verloopstaal_1" />
    <linearGradient id="Nieuwe_verloopstaal_1-3" data-name="Nieuwe verloopstaal 1" x1="192.64" y1="592.11" x2="1575.11" y2="592.11" xlink:href="#Nieuwe_verloopstaal_1" />
    <linearGradient id="Nieuwe_verloopstaal_1-4" data-name="Nieuwe verloopstaal 1" y1="1107.45" y2="1107.45" xlink:href="#Nieuwe_verloopstaal_1" />
    <linearGradient id="Nieuwe_verloopstaal_1-5" data-name="Nieuwe verloopstaal 1" y1="1081.17" y2="1081.17" xlink:href="#Nieuwe_verloopstaal_1" />
    <linearGradient id="Nieuwe_verloopstaal_1-6" data-name="Nieuwe verloopstaal 1" y1="1118.18" y2="1118.18" xlink:href="#Nieuwe_verloopstaal_1" />
    <linearGradient id="Nieuwe_verloopstaal_1-7" data-name="Nieuwe verloopstaal 1" y1="1087.73" y2="1087.73" xlink:href="#Nieuwe_verloopstaal_1" />
    <linearGradient id="Nieuwe_verloopstaal_1-8" data-name="Nieuwe verloopstaal 1" x1="1476.86" y1="1090.8" x2="1477.35" y2="1090.8" xlink:href="#Nieuwe_verloopstaal_1" />
    <linearGradient id="Nieuwe_verloopstaal_1-9" data-name="Nieuwe verloopstaal 1" x1="1227.52" y1="1062.45" x2="1229.67" y2="1062.45" xlink:href="#Nieuwe_verloopstaal_1" />
  </defs>
  <g>
    <path class="cls-9" d="M1419.87,1069.42c10.67,2.97,20.95,5.53,31.02,8.1-8.68-3.16-18.96-6.12-31.02-8.1Z" />
    <polygon class="cls-3" points="1474.39 1083.83 1469.05 1082.46 1480.32 1086.01 1474.39 1083.83" />
    <path class="cls-10" d="M1325.48,1070.6l-.79-.59c-31.31-1.54-62.25-3.1-95.01-7.42,12.2,1.69,9.6,3.29-6.1,3.47l-12.66-3.55c28.84-1.58,57.87-2.96,84.94,3.16.13-.01,12.45-.79,18.75-1.19,8.88,1.58,8.3,3.57,10.08,5.53l19.16,1.19c-13.05-4.94-55.51-11.64-55.51-11.46-81.95-2.77-159.18-1.38-234.43-2.77-5.73,1.19-9.87,2.59-17.58,1.78-5.92-1.18-11.86-1.96-17.77-2.55l-32.79-.99-11.57.37h-.08s-.29.02-.29.02c-6.2.62-4.42,1.79-.7,2.76,3.17.59,6.02,1.27,8.64,1.9,1.2.25,2.2.48,2.83.67-.91-.21-1.85-.44-2.83-.67-2.58-.55-6.07-1.22-8.64-1.9-5.13-.97-10.86-1.77-17.58-2.15-4.64,0-9.36,0-14.16-.06,3.41-.05,6.89-.14,10.38-.25,1.29.09,2.55.2,3.78.31l18.28-.6s.06,0,.09,0h.28s5.26-.59,5.26-.59l-75.05-2.96c-5.73,0-11.26,0-15.61.2-17.98-.2-36.14,0-47-4.34l-13.23-1.39,2.36.8c-1.98-.41-3.56-.8-4.75-1-18.75-2.17-37.32-4.53-55.89-8.09-36.34-6.32-72.48-15.01-108.22-27.07-115.74-39.3-214.1-111.38-247.47-233.24-11.45-13.44-19.75-22.52-38.91-33.38-13.82-4.94-27.46-10.07-40.5-16.4-26.07-12.25-51.14-28.05-68.34-49.38-37.71-45.24-17.57-104.86,28.46-149.31,44.62-51.75,93.8-97.57,145.16-138.65,52.53-40.89,104.08-80.77,162.15-95.2,57.86-14.61,118.3-11.26,174,6.71,13.82,4.75,27.45,9.68,40.48,15.8l14.02,7.12c4.55,1.77-7.9-2.77,10.67,4.15l26.47,4.75c31.2,5.51,62.4,10.26,93.82,14.21,62.79,7.9,126,14.02,191.57,14.61,32.98.2,66.35-.78,101.32-6.51,34.17-6.91,74.26-12.45,110.19-52.14,27.86-30.62,33.19-92.04-3.95-133.7-35.55-37.93-78.02-48.59-116.13-57.68-77.4-15.39-150.69-13.03-200.86-11.44-133.5,19.16-60.82,44.23-55.1,44.64,40.69,9.28,76.04,10.47,121.26,12.64,40.11,3.45,95.05,3.06,154.56,29.02,0,0,.01-.02.02-.02-23.51-12.28-4.58-10.25,29.49,4.59,19.36,9.28,37.73,28.44,33.97,52.33-1.77,23.5-23.7,36.34-45.83,41.08-64.78,11.46-154.83,8.69-248.45,2.38-47-3.36-95.38-8.5-143-15.59-11.03-1.67-22.22-3.5-32.95-5.33l5.89,2.95.59.4c-4.93-1.78,11.86,4.54-11.25-4.14h.4l1.97.38c.79.14,1.59.27,2.39.41l-9.9-4.95c-6.11-3.16-12.25-5.52-18.37-8.29-24.69-10.28-49.77-18.17-75.05-23.91-50.17-11.85-108.03-11.64-169.45,5.34-82.75,22.71-141.21,74.66-196.51,119.29-55.91,47.8-107.05,99.73-153.06,158.59-24.69,28.04-49.79,78.61-41.68,128.77,7.31,52.73,45.42,90.45,80.57,112.18,17.97,11.44,36.54,20.34,55.31,27.84,8.32,3.54,16.78,6.3,25.28,9.25-.03-.22.79.04,2.95,1.03-.98-.35-1.97-.69-2.95-1.03.11.74,10.07,7.03,11.45,9.32,9.68,9.28,18.17,19.94,20.93,30.21,1.58,2.38,1.38,5.14,1.97,7.7l.59,3.77.2.98.2.39v.39c4.15,20.93,1.38,6.12,2.36,10.86.98,2.77,1.38,3.95,2.17,5.53,4.94,11.86,10.47,21.34,16.4,31.02,52.93,78.61,126.8,113.75,193.14,138.44,48.79,19.35,102.12,35.55,143.4,43.05,64.79,11.26,122.45,11.86,174.79,10.27-58.87-.59-103.69-.79-170.44-10.86-44.23-7.91,32.39-1.97,61.81-1.97,12.65-.4,31.6,8.89,44.44,8.1,27.65,1.58,52.34-.59,81.37-1.77,12.25-1.19,10.66,5.52,16.79,4.93,39.69-.59,70.11-8.89,95.19-6.71,19.34,1,36.54,2.17,53.33,3.16,10.65.4,21.12.79,32.18.6l21.54-1.78c51.55-3.75,111.18-7.51,166.29-6.32ZM644.09,1007.4c22.32,5.13,40.1,12.84,55.7,20.34-17.59-3.36-39.69-10.86-55.7-20.34Z" />
    <path class="cls-8" d="M1543.11,1115.65c-10.46-5.73-21.12-11.26-31.98-16.4,5.32,2.96,10.26,6.31,15.18,10.07,6.72,4.15,10.88,4.74,16.8,6.32Z" />
    <path class="cls-2" d="M1468.86,1082.46h.19l-18.17-4.94c6.12,2.39,11.86,4.74,16.4,7.32-3.36-2.17-4.74-3.76,1.58-2.38Z" />
    <path class="cls-7" d="M1533.24,1130.85c-21.13-13.24-51.55-18.77-87.89-28.24-5.91-1.19-2.77-7.12-14.62-8.89-27.65-5.53-51.74-6.32-77.81-9.48-12.06,0-30.41-8.89-42.66-8.11-28.64-.39-102.12,7.91-58.86,8.11,64.58.78,106.45,1.18,161.74,12.25,45.24,7.51,87.91,21.52,130.76,43.05,12.83,7.51,21.12,11.25,31.2,20.73-10.26-10.27-26.46-19.55-41.87-29.42Z" />
    <path class="cls-1" d="M1467.28,1084.83c2.91,1.99,7.48,4.49,9.58,5.81-2.67-1.72-5.86-3.77-9.58-5.81Z" />
    <path class="cls-6" d="M1476.86,1090.64c.16.11.33.21.49.32-.14-.09-.31-.2-.49-.32Z" />
    <path class="cls-5" d="M1229.67,1062.59c-.68-.09-1.39-.19-2.15-.28.72.1,1.43.19,2.15.28Z" />
  </g>
  </svg>